# xmcd
#
# Track frame offsets: 
#        150
#        15698
#        27515
#        41740
#        55370
#        70595
#        91670
#        112150
#        132670
#        146100
#        157323
#
# Disc length: 2346 seconds
#
# Revision: 2
# Processed by: cddbd v1.5.2PL0 Copyright (c) Steve Scherf et al.
# Submitted via: ExactAudioCopy v1.0b4
#
DISCID=a409280b
DTITLE=Rory Block - Mama's Blues
DYEAR=1991
DGENRE=Blues, Country Blues
TTITLE0=Terraplane Blues
TTITLE1=Bye Bye Blues
TTITLE2=Big Road Blues
TTITLE3=Do Your Duty
TTITLE4=The Spirit Returns
TTITLE5=Got To Shine
TTITLE6=Mama's Blues
TTITLE7=Ain't No Shame
TTITLE8=Hawkins Blues
TTITLE9=Weepin' Willow Blues
TTITLE10=Sing Good News
EXTD=
EXTT0=
EXTT1=
EXTT2=
EXTT3=
EXTT4=
EXTT5=
EXTT6=
EXTT7=
EXTT8=
EXTT9=
EXTT10=
PLAYORDER=
